<?xml version="1.0" encoding="UTF-8"?>
<svg id="Layer_2" data-name="Layer 2" xmlns="http://www.w3.org/2000/svg" viewBox="0 0 68.67 69.43">
  <defs>
    <style>
      .cls-1 {
        fill: none;
        stroke: #fff;
        stroke-linejoin: round;
        stroke-width: 3px;
      }
    </style>
  </defs>
  <g id="Layer_2-2" data-name="Layer 2">
    <g>
      <ellipse class="cls-1" cx="23.84" cy="27" rx="6.78" ry="9.34" transform="translate(-12.11 24.77) rotate(-45)"/>
      <path class="cls-1" d="M17.24,20.4c10.34,2.56,3.05,10.81,13.21,13.21"/>
      <path class="cls-1" d="M41.06,43.02c.25-4.95.6-12.43.6-15.71s-.35-10.76-.6-15.71l4.08-4.08c1.38-1.38,1.38-3.61,0-4.99s-3.61-1.38-4.99,0l-4.04,4.04c-4.08-.24-9.72-.55-12.27-.55s-8.2.31-12.27.55L7.53,2.53c-1.38-1.38-3.61-1.38-4.99,0s-1.38,3.61,0,4.99l4.08,4.08c-.25,4.95-.6,12.43-.6,15.71s.35,10.76.6,15.71l-4.08,4.08c-1.38,1.38-1.38,3.61,0,4.99h0c1.38,1.38,3.61,1.38,4.99,0l4.04-4.04c4.08.24,9.72.55,12.27.55s8.2-.31,12.27-.55l4.04,4.04c1.38,1.38,3.61,1.38,4.99,0h0c1.38-1.38,1.38-3.61,0-4.99l-4.08-4.08Z"/>
      <path class="cls-1" d="M27.18,48.52c.12,3.12.29,6.58.42,9.29l-4.08,4.08c-1.38,1.38-1.38,3.61,0,4.99h0c1.38,1.38,3.61,1.38,4.99,0l4.04-4.04c4.08.24,9.72.55,12.27.55s8.2-.31,12.27-.55l4.04,4.04c1.38,1.38,3.61,1.38,4.99,0h0c1.38-1.38,1.38-3.61,0-4.99l-4.08-4.08c.25-4.95.6-12.43.6-15.71s-.35-10.76-.6-15.71l4.08-4.08c1.38-1.38,1.38-3.61,0-4.99s-3.61-1.38-4.99,0l-4.04,4.04c-4.08-.24-9.72-.55-12.27-.55-.84,0-2.01.03-3.34.09"/>
    </g>
  </g>
</svg>