<?xml version="1.0" encoding="UTF-8"?>
<svg id="Layer_2" data-name="Layer 2" xmlns="http://www.w3.org/2000/svg" viewBox="0 0 55.51 66.7">
  <defs>
    <style>
      .cls-1, .cls-2, .cls-3 {
        fill: none;
        stroke: #fff;
      }

      .cls-1, .cls-3 {
        stroke-linejoin: round;
        stroke-width: 3px;
      }

      .cls-2 {
        stroke-miterlimit: 10;
      }

      .cls-3 {
        stroke-linecap: round;
      }
    </style>
  </defs>
  <g id="Layer_2-2" data-name="Layer 2">
    <g>
      <path class="cls-1" d="M52.87,58.58l-1.12-1.11c-1.09-1.09-1.7-2.57-1.7-4.11v-25.29H5.69v25.05c0,1.54-.61,3.02-1.7,4.11l-1.35,1.35c-1.52,1.51-1.52,3.97,0,5.49h0c1.51,1.51,3.97,1.51,5.48,0l1.47-1.5c.93-.95,2.2-1.48,3.53-1.48h29.28c1.33,0,2.6.53,3.53,1.48l1.47,1.5c1.51,1.51,3.97,1.51,5.48,0h0c1.51-1.51,1.51-3.97,0-5.48Z"/>
      <rect class="cls-1" x="2" y="19.02" width="51.51" height="9.05" rx="3.56" ry="3.56"/>
      <line class="cls-3" x1="5.69" y1="51.27" x2="50.05" y2="51.27"/>
      <path class="cls-3" d="M47,19.02l-12.92-14.72c-3.29-3.74-9.12-3.74-12.41,0l-12.92,14.72"/>
      <circle class="cls-2" cx="21.08" cy="13.8" r="1.79"/>
      <circle class="cls-2" cx="28.53" cy="10.53" r="1.79"/>
      <circle class="cls-2" cx="34.64" cy="14.15" r="1.79"/>
    </g>
  </g>
</svg>