<?xml version="1.0" encoding="UTF-8"?>
<svg id="Layer_2" data-name="Layer 2" xmlns="http://www.w3.org/2000/svg" viewBox="0 0 58.02 72.55">
  <defs>
    <style>
      .cls-1 {
        stroke-miterlimit: 10;
      }

      .cls-1, .cls-2 {
        fill: none;
        stroke: #fff;
      }

      .cls-2 {
        stroke-linecap: round;
        stroke-linejoin: round;
        stroke-width: 3px;
      }
    </style>
  </defs>
  <g id="Layer_2-2" data-name="Layer 2">
    <g>
      <rect class="cls-2" x="1.5" y="16.59" width="13.78" height="44.29"/>
      <path class="cls-2" d="M4.47,1.5h49.59v4.22c0,6-4.87,10.87-10.87,10.87H1.5V4.47c0-1.64,1.33-2.97,2.97-2.97Z"/>
      <path class="cls-2" d="M1.5,60.88h44.47c4.46,0,8.09,3.62,8.09,8.09v.21c0,1.03-.84,1.87-1.87,1.87H3.37c-1.03,0-1.87-.84-1.87-1.87v-8.3h0Z"/>
      <circle class="cls-1" cx="9.79" cy="9.05" r="2.87"/>
      <circle class="cls-1" cx="18.58" cy="9.05" r="2.87"/>
      <rect class="cls-2" x="26.6" y="16.59" width="13.49" height="7.38"/>
      <rect class="cls-2" x="30.06" y="23.97" width="6.56" height="6.03"/>
      <path class="cls-2" d="M23.15,37.42h23.46v14.18c0,5.12-4.16,9.28-9.28,9.28h-4.89c-5.12,0-9.28-4.16-9.28-9.28v-14.18h0Z"/>
      <path class="cls-2" d="M46.61,40.54h4.93c2.75,0,4.98,2.23,4.98,4.98v.21c0,2.75-2.23,4.98-4.98,4.98h-4.93v-10.17h0Z"/>
    </g>
  </g>
</svg>