<?xml version="1.0" encoding="UTF-8"?>
<svg id="Layer_2" data-name="Layer 2" xmlns="http://www.w3.org/2000/svg" viewBox="0 0 51.33 72.66">
  <defs>
    <style>
      .cls-1, .cls-2 {
        fill: none;
        stroke: #fff;
        stroke-linejoin: round;
        stroke-width: 3px;
      }

      .cls-2 {
        stroke-linecap: round;
      }
    </style>
  </defs>
  <g id="Layer_2-2" data-name="Layer 2">
    <g>
      <ellipse class="cls-1" cx="15.53" cy="12.5" rx="7.99" ry="11" transform="translate(-4.29 14.65) rotate(-45)"/>
      <path class="cls-1" d="M7.76,4.72c12.18,3.02,3.6,12.73,15.56,15.56"/>
      <ellipse class="cls-1" cx="37.42" cy="12.5" rx="7.99" ry="11"/>
      <path class="cls-1" d="M37.42,1.5c6.48,10.75-6.46,11.54,0,22"/>
      <path class="cls-1" d="M48.79,65.06l-1.12-1.12c-.94-.94-1.48-2.22-1.48-3.56v-23.41H5.36v23.19c0,1.33-.53,2.62-1.48,3.56l-1.34,1.33c-1.4,1.39-1.4,3.66,0,5.05h0c1.39,1.39,3.65,1.39,5.05,0l1.21-1.23c.95-.96,2.24-1.51,3.59-1.51h26.55c1.35,0,2.64.54,3.59,1.51l1.21,1.23c1.39,1.39,3.65,1.39,5.05,0h0c1.39-1.39,1.39-3.65,0-5.05Z"/>
      <rect class="cls-1" x="1.96" y="28.65" width="47.42" height="8.33" rx="3.56" ry="3.56"/>
      <line class="cls-2" x1="5.36" y1="45.21" x2="32.69" y2="45.21"/>
    </g>
  </g>
</svg>