<?xml version="1.0" encoding="UTF-8"?>
<svg id="Layer_2" data-name="Layer 2" xmlns="http://www.w3.org/2000/svg" viewBox="0 0 72.75 68.33">
  <defs>
    <style>
      .cls-1, .cls-2 {
        fill: none;
        stroke: #fff;
        stroke-linejoin: round;
        stroke-width: 3px;
      }

      .cls-2 {
        stroke-linecap: round;
      }
    </style>
  </defs>
  <g id="Layer_2-2" data-name="Layer 2">
    <g>
      <ellipse class="cls-1" cx="36.38" cy="17.96" rx="5.56" ry="7.66"/>
      <path class="cls-1" d="M36.38,10.68c4.51,7.48-4.5,8.04,0,15.31"/>
      <rect class="cls-2" x="12.28" y="31.61" width="48.18" height="35.22"/>
      <path class="cls-2" d="M60.47,66.83h7.81c1.64,0,2.97-1.33,2.97-2.97V26.8c0-1.34-.66-2.59-1.76-3.35L38.69,2.22c-1.39-.96-3.23-.96-4.62,0L3.26,23.45c-1.1.76-1.76,2.01-1.76,3.35v37.06c0,1.64,1.33,2.97,2.97,2.97h7.81"/>
      <line class="cls-2" x1="12.28" y1="38.86" x2="60.47" y2="38.86"/>
      <line class="cls-2" x1="12.28" y1="45.77" x2="60.47" y2="45.77"/>
      <line class="cls-2" x1="12.28" y1="52.68" x2="60.47" y2="52.68"/>
      <line class="cls-2" x1="12.28" y1="59.58" x2="60.47" y2="59.58"/>
    </g>
  </g>
</svg>